<mxfile host="app.diagrams.net" modified="2020-12-05T08:44:16.922Z" agent="5.0 (Macintosh; Intel Mac OS X 10_14_3) AppleWebKit/537.36 (KHTML, like Gecko) Chrome/86.0.4240.111 Safari/537.36" etag="rY7u_UlWT2eT0hBOmGYV" version="13.8.0" type="github">
  <diagram id="D8JnfLwXmHgxDLMGZuiV" name="Page-1">
    <mxGraphModel dx="946" dy="614" grid="1" gridSize="10" guides="1" tooltips="1" connect="1" arrows="1" fold="1" page="1" pageScale="1" pageWidth="827" pageHeight="1169" math="0" shadow="0">
      <root>
        <mxCell id="0" />
        <mxCell id="1" parent="0" />
        <mxCell id="kiAeMfLK7E17oeJdD59y-1" value="&lt;script src=&quot;https://my.openwrite.cn/js/readmore.js&quot; type=&quot;text/javascript&quot;&gt;&lt;/script&gt;&lt;script&gt;    const btw = new BTWPlugin();    btw.init({        id: &#39;main&#39;,        blogId: &#39;16456-1570500048991-724&#39;,        name: &#39;下雨就像弹钢琴&#39;,        qrcode: &#39;https://www.zhoujunwen.com/wp-content/uploads/2019/09/qrcode_for_gh_f7c7e6ace303_258-1.jpg&#39;,        keyword: &#39;阅读全文&#39;,    });&lt;/script&gt;" style="rounded=0;whiteSpace=wrap;html=1;sketch=0;shadow=0;glass=0;fontFamily=Comic Sans MS;fillColor=#f9f7ed;strokeColor=#36393d;" parent="1" vertex="1">
          <mxGeometry x="27" y="20" width="1056" height="450" as="geometry" />
        </mxCell>
        <mxCell id="UuyhtYAQAyIEhsM1uixm-16" value="虚怀若谷" style="text;html=1;align=center;verticalAlign=middle;whiteSpace=wrap;rounded=0;fontFamily=Garamond;fontSize=21;glass=0;shadow=0;sketch=0;textOpacity=50;fontStyle=2;fontColor=#FDFDFD;" vertex="1" parent="1">
          <mxGeometry x="877" y="340" width="130" height="70" as="geometry" />
        </mxCell>
        <mxCell id="UuyhtYAQAyIEhsM1uixm-107" value="" style="endArrow=classic;html=1;strokeColor=#006EAF;fontFamily=Comic Sans MS;fontSize=53;fontColor=#FF0000;exitX=1;exitY=0.5;exitDx=0;exitDy=0;shape=link;fillColor=#1ba1e2;edgeStyle=isometricEdgeStyle;elbow=vertical;" edge="1" parent="1" target="UuyhtYAQAyIEhsM1uixm-104">
          <mxGeometry width="50" height="50" relative="1" as="geometry">
            <mxPoint x="340" y="145" as="sourcePoint" />
            <mxPoint x="380" y="200" as="targetPoint" />
          </mxGeometry>
        </mxCell>
        <mxCell id="UuyhtYAQAyIEhsM1uixm-126" style="edgeStyle=none;rounded=0;orthogonalLoop=1;jettySize=auto;html=1;entryX=0;entryY=0.5;entryDx=0;entryDy=0;strokeColor=#006EAF;fontFamily=Comic Sans MS;fontSize=13;fontColor=#FDFDFD;strokeWidth=3;fillColor=#1ba1e2;" edge="1" parent="1" target="UuyhtYAQAyIEhsM1uixm-121">
          <mxGeometry relative="1" as="geometry">
            <mxPoint x="470" y="185.40540540540542" as="sourcePoint" />
          </mxGeometry>
        </mxCell>
        <mxCell id="UuyhtYAQAyIEhsM1uixm-128" value="git push" style="edgeLabel;html=1;align=center;verticalAlign=middle;resizable=0;points=[];fontSize=20;fontFamily=Comic Sans MS;labelBackgroundColor=none;rotation=348;fontColor=#0081D3;" vertex="1" connectable="0" parent="UuyhtYAQAyIEhsM1uixm-126">
          <mxGeometry x="-0.2118" y="4" relative="1" as="geometry">
            <mxPoint x="-2.23" y="-13.53" as="offset" />
          </mxGeometry>
        </mxCell>
        <mxCell id="UuyhtYAQAyIEhsM1uixm-127" style="edgeStyle=none;rounded=0;orthogonalLoop=1;jettySize=auto;html=1;entryX=0;entryY=0.5;entryDx=0;entryDy=0;strokeColor=#006EAF;fontFamily=Comic Sans MS;fontSize=13;fontColor=#FDFDFD;strokeWidth=3;fillColor=#1ba1e2;" edge="1" parent="1" target="UuyhtYAQAyIEhsM1uixm-120">
          <mxGeometry relative="1" as="geometry">
            <mxPoint x="470" y="254.59459459459458" as="sourcePoint" />
          </mxGeometry>
        </mxCell>
        <mxCell id="UuyhtYAQAyIEhsM1uixm-129" value="git push" style="edgeLabel;html=1;align=center;verticalAlign=middle;resizable=0;points=[];fontSize=20;fontFamily=Comic Sans MS;labelBackgroundColor=none;rotation=13;fontColor=#0081D3;" vertex="1" connectable="0" parent="UuyhtYAQAyIEhsM1uixm-127">
          <mxGeometry x="-0.2509" y="2" relative="1" as="geometry">
            <mxPoint x="21.38" y="-9.55" as="offset" />
          </mxGeometry>
        </mxCell>
        <mxCell id="UuyhtYAQAyIEhsM1uixm-133" value="" style="shape=image;verticalLabelPosition=bottom;labelBackgroundColor=#ffffff;verticalAlign=top;aspect=fixed;imageAspect=0;image=data:image/png,iVBORw0KGgoAAAANSUhEUgAAAb0AAAGQCAYAAAA6HL6sAAAgAElEQVR4Ae19CZxdRZ11qx/DuPAx7qK4QZJ+9/7rdYJhEAWdDCDSSfpV1W1aiICCSxxFRhD3ZYwOuO8CiiIoomKPimFJ+lXV65Ygm6J+ghsyioyiAirI4AZof7/qpJN05+3v3qq69x5/P+y89+6tqnvO+Z9z17pDQ/hfaRFYN7PsUXIzS6SKT5eGPiU1beQ6ukbo+GdC0z1C0yz+AwY51cC9iY5/Oa7puzVDimv6vNDRh2oqetURm4dHSlv02HAgUCYEjr583ydKQ0cLHX9MaPpOTs0MQYydkYE1IBXdJjR9IdHxSby+9Oll8gFsKxAoNAITM7TEFrZQtAkhh6M2aKC5Briim3idfVTU49FCGwI2DggUEQEEXXNjg+EDl240gAAsoitimwqJgJiurqxpOrubwsYyCABooCsNfJPr+IRCGgY2CgjkFQGEXVfmNfB1IIREeXGWhl1ur4fn1SMwbiBQCAQQduU1YQSwN+7rcrrKC2Eg2AggkCcEEhO/Ecbnzfhw1FjyO0i5ZucmMyN758kzMFYgkEsExurVSmLoqwg8BB404F0DPxGK1uXSSDBoIJAHBLiOXmAfuIXZeTc7HOmV/EhvQQ0aOvPQaw94ZB48BGMEArlAYHTT6O7cRGcsKDSYDoIHGghIA/H1wlRFLgwFgwQCISOwxizdRyhSCDwc3UED4WuA6+obQvYTjA0IBI3AhI4PFjr6HcwufLMDR+BoXgOJovOCNhYMDgiEiIA08THzRYS/MFRoIGcaUHRliL6CMQGBIBHgunIBTC5nJofrawFdXwtDO1LRb4M0GAwKCISEgNA0g8ALw7TAA3gYXAPxXSH5C8YCBIJCINHsssGLDEYFDKGBsDQQXx+U0WAwQCAEBISm88MqVBgn+IAG0tIA19GlIfgMxgAEgkBANuiDaRUX2oFRQwNhamDcsMkgDAeDAAI+ERANOhkmFaZJgRfwkroGVPUzPv0GfQMBrwjUZtj+iaa7Uy8s3EmIOwmhgWA1kCh6iVfjQedAwBcCQtEmBB6OJqCB0mngV3bieF++g36BgBcEuGFvgtmVzuyCPfqAFt1qEdf3vNguOvWFQNKIni003Q+jcWs0wBt4h6QBadi/+/Ig9AsEnCIgNNVDKj6MBWEADfjQQHx7bYqWODUfdAYEXCMgNb0UBuPDYNAndBegBhp0lmsPQn9AwBkCa66oPpxr+hHMJ0Dzwd2OuN7oSQNHqpFDnZkQOgICLhHgdXYaAg+BBw1AAztrgGt2mUsfQl9AwAkCq2fiFULTn3YWO/4N84MGoAGrAanjE5wYEToBAq4QwNyaMDcEHDTQSgNc0fdHNz3i/7ryI/QDBDJFQOph3krs+B5GCA1AA1YDiWYbMjUiNA4EXCHAFbscxgZjgwaggXYasFMSyvoIc+VL6AcIZIJAouOT2gkdv8EIoQFoYF4DiaLzMjEiNAoEXCCQbIn2EoZunhc0/sLcoAFooJMGEr1ijQt/Qh9AIHUEhGHv7yRw/A4ThAaggQUaMNRI3YzQIBDIGoFEjxwoNP19gZg9PfyKMcBUoYF8aYDX6RVZexTaBwKpIiANm4TR5MtowBf4CkgD/314fd/HpGpKaAwIZIUAN9FRARUPppfCETY0kEMNSEPvzsqj0C4QSA+ByYkHCUXXIvRw1AANQAMDacDQvbUZtn965oSWgEAGCEjNXjuQ0HO4R4rthblDA9logCv6YgY2hSaBQDoIrDFL9+Gafg0DyMYAgCtwLaMGxvXIeDoOhVaAQMoIcFM9o4xFiW1GGEEDGWrA0JUpWxWaAwKDIyA0W4XCz7DwcdoXN6OUWAPjJn714C6FFoBAiggIQxcj9BB60AA0kIUGuI5/OaH3eVKKloWmgED/CEhTeWEWQkebMFBoABqY14A07MP9uxTWBAIpIXBcfeShUtP35oWJvzApaAAayEoD3MTPSsm60AwQ6A+BxNBbsxI42oV5QgPQwEINsIv6cyqsBQRSQGBiE8Vcx3ctFCWKFHhAA9BAdhqQpnpMCvaFJoBA7wiMq5FzUNzZFTewBbbQQDMNsG+vOm/VP/buWFgDCAyAgDR0BAqyWUHiO+gCGshaA9ywNw1gX1gVCPSOgNBMZy1stA/zhAaggRYa+O1qU1nWu3NhDSDQBwKJil/WQoh4gLjEDxBDEwgolxqQhn2iD/vCKkCgNwQOvfaARwpNN7oUN/qCmUID0EAzDdTq7Dm9ORiWBgI9IiAUe2cz8eE7mBI0AA241oCs0+YeLQyLA4HuEVjbiJ4mNP3FtbDRH8wUGoAGWmlgzLAXd+9iWBII9IAA1+yCVsLD9zAlaAAa8KEBrumHx1+04p96sDIsCgQ6IyBMVfgQNPqEkUID0EAnDSSK3tHZxbAEEOgBAaHpik7Cw+8wJ2gAGvCkgXvGNw+P9GBpWBQItEagpqJXeRIyHoHAIxDQADTQlQakps+2djH8AgS6RGCisfwJQtMtCD3swUMD0EDoGuB1GuvS2rAYEGiOwLimD4YudIwPZgwNQAPbNDDT3MnwLRDoAgHeqDwTZgIzgQaggTxpQCo6sQt7wyJAYFcEEs2+nCexY6wwZ2gAGhA6/tnqmfhxuzoavgECbRAQitbBQGAg0AA0kEcNcB2/t4294ScgsBCB9Wev3E0o+lYexY4xw6ShAWhAaLpfNJYdsNDZ8AkItECAN6LXwzhgHNAANJBnDUgVf6mFxeFrILADgdoULRGabsuz2DH2cMyaK7opUfSe2jQddJReGq0z7LH2TMJBG4f3mND7PElO0XKh2Spp6FNC05/AXTjcFYGLWiOe2OFu+BcQaIKA0HRWEcSObfBrnjVNZ4t6PNpEYi2/mpjc+xG8Tq8QJr4O/Pnlryj4c82unp0dekBL0eGHciMwVqdDiiJ2bIcf05wLu+nqykErSZh4PcLPD4dFqx2u2WsG1SPWLygC3LBLiyZ4bI8b4+Safs1N9bC0S0MYOg8cuuGwwDj/6ujNK56StjbRXs4R4Do+ocCi72ruPmx/3+b6nTVXVB+eVQngxcV98wLdb5u3lDfYR7PSJ9rNIQIv2ji8h9DsBpg+zKUPDdzkQvJHqmWH9jE2mD4mq96uAakq/+JCq+gjBwjUdOVtMBQEXh8auGN00+juriQudfyiPsa43fSwbrk1LjVtdKVV9BMwArI+woSmu2EI5TaEPvi/b6zO1rqWdqLpzD7GiuDDEd+cBhLFjnOtWfQXGAKJZufCRBB4PWugHm/wIeWJTUseLTT9pOfxwvQR/JpmpaHvjl3y+If40C76DACBcRWthnkg8PrQwK3JlmgvXxJOVPyyPsYM00fwz2vgLb60i349IyAVNWAeCL2eNeDpKG/nchGa6j2PG6Y/b/rl/mvo92P1amVnPeHfJUBAaPZymAYCrx8NjNWHn+q7RCQesSl3cA24A8M1fdK3htG/QwRGt8xdF7mpH8PDOuUOynHDJh1KtWVXR1++7xOhxXJrcVD+ua48t6XA8EOxEJA6fteggsH65TSckCbwTTR9Ezospw5T4r1eLGfH1jRFoKbY/kLTvSmJBqdYBjzNkjcemorK05eiHm/IG34Yb1ghLTW91JN80a0rBISmL6Dwwiq8/PAR/c6VTrvpJ9HxSfnBDpoLkSup4x/bt3t0ozcsk0MEpK4kIQoPY8qHIdp344Uke2niY6CdfGgnZJ7GNDstJF1jLCkiIBRdGbL4MLawDSzR0TUpynHgpuz7+qCZsDWTE37+NDETrxhYkGggLAR4nU7JiQBxnTDc64QzIanavnEdmkbopaSB80PSNsYyIAJzt3cb+kVK4kAohRtKWXOD0Csv91lry3v7Ug/zAa0Wq4eCgDDRhxF42CNOQQMIPYSe93BKQcdNt0Eadnkono1xDIDAhI4PzkokaLd0QYrQQ+g1DYyieIG9I3gAu8WqISDADX21KILEdngPWYQeQq/QoSc0/bymhh8fgndjDH0ggFu6vYdE0QwCoYfQK5qmd90ew97fh91iFd8I2DdaC82+jaOjcIJPKvq+nbty60wi8ce4oi9KQyrRdEdOeELo9RZ6dwtDDWni07feaWrvNt36n309kmzQBxPNLhMGMyQFpv+/j82MHOjbw9F/jwgkJn5jYELadY+qNwPJ3/qGfm9Drpu3NYvp6krRoJOFjq8KmDeEXnea/VNN0XsmGsuf0E3Zrj975W7j0yPjQtP5AXOfv/rrjqum2yUV/Vc33GGZQBCQl1WW5ejooano8l789tUlqxv7PbkfSdhJncc1XRIgBgi9DkYqNX32iM3DI/3wbtepTdNBQrMLA+S+kHXaDmduoqP65RHrOUZAmson2pGJ37I75Sk1fY8bOjINyoWh1wV26guh1zr0fltT7N/S4N22ITczO2XgLajV7Gq1I7aKrh2anHhQWpyinYwQ4KZ6WEcyWxdu6fbmUsWqEX8p7Tu/uImfJTT9JNVx9s8/Qq8ZdoZullO0PO2SnthEMd4Q7zH0LNeGXpc2r2gvZQSEok2BGGSpApQbenvKVG5vTjSWHSAa8e0B8IrQ2zX07rQ7JtvJSvkfGzYMPZCr+CMBcF+qet4J798kZuk+KdOK5tJCQNSjF+9EVllF6nq7b+O68vy0OGzVzloVrRaa7vPML0JvceiZqmjFWZrf8zq9Qmj6q2f+XddWEP1xUz0jTS7RVkoIHKZX7ikV/QBF4e50iJ22aG0jelpKFHZsZtzEr/bML0Jvp9Bz/UqasTodIjS7wbMGgggi1xgkU/SvHQsUC7hFwJ5ecy2EUvdn6LyxSx7/ELcsDw15vsaD0NsRet+cmNz7wa75r03REqHpilLX3g4OnAVwTdMlrrlGf20QGN88PCI03YNCcHSUp9g729CR6U+1evRsjzwj9LYZrpyuep2RP9BHWpyFkI8akKbywkyLG413j4BQ0Wd8iKCcfVZf2T0z2SwpNNOesEfoaZqtafppNsz21qo08ec86aDQ4dYKU/s40nH1kYf2xhKWTh0BadjaViTh+3SP/NJ6/m5QERyp2Ws8cYvQ0zRrpw8blMO01sfMS+nWeKe6kor+Iy3u0E6fCEhD052Iwu+DF4acGjmiT4pSX22dYY/1xClCb+70JluVOqkDNChU5XBPeijhEV98FzdL4gHowqqDICBVdCLEPnigdcIwUSsOGoSnLNYVhm7uNO4MfkfoaZod3bLk0VlwOkibyVS0JgO+Sxhqnf0kMeycQbjCun0iYPf27bUFCL2zSAfBKIuZNvqkfMFq3M7O7/4uNoSejm9fQERAH7hhR3nQRDmDsR6PBkR9OYaSKHoPBJ5t4IU8EwPX8Xs98I/Q0xQUBovdLlH0Eg+6KGHwMb0Ye3zOEIG5aak03Q9xZxd6h9f3fUyGFA7ctL2ZwgP/QRn+1nfTZaeB5viyGwYmL+MGtr6iyjUu5esvUdWXZUwlmp9HAK8eybbAJq5y/9DxPLfd/vX07rXSh5409KtuOfK5nND0luahnW3tlKpPQzeumln5KJ88l6Jve9t8qYTl+LrVQRuH98iDkObeuO0YGxHYqT0vR3qG7s2DPuwY7Yts4RUZh7zHiSryosPBxjk79ACp2NUQclZCDutW9HZiEZp+7kEHpT/Ss5jbGZDacRPSb8LQmR50UqZrfH9xOf9uSNpyMhZhKqdCwBkFnqmc6oTEFDqRl7LIkw4QevbhdBWdmAKNzprwdCq8NMHHNbvAGZll6mh1Y78nC023ejK7QgtY6sr78qQlqemlnnSA0Nv6cPqFedKLHaswdLEnzRTaO+YxTRSTedNE8OPldfbReYDxN72jPWnoU8GTv2iAQrOLPGkAoWdDz9C9eZuVI9kS7SVMfJ0n3ZQh+K5YVKb4OAgCnmfWL65gG/SVQXjxsa59S7dH40Lobbt5yD4n64P/QfpM9MiBQtOdHvVTXC+x13oVe9Ug/GDdnRAQhr4GoaZ3dGex5Jp+ZE8Z7wRzLv6ZqOgcj1pA6G0LPa7p12P1aiUXotlpkEJVj/eon0KHHlf0P8mmkb13ghv/7AeBRLHjINJ0A28OzxxOI1RrxBOetYDQ2xZ6W3mIr+qnpn2vI3X8Ls86Kmz4hfQGDt8666t/+2Zmrum7EGjKoZejOzXnhZPMjOwdgA4QegtCj2YTzb48z1Ge/nq8LlzYwJuvT96oPDNPWghqrOM6evM8kPibVvDFnw6K5C4HEwj/CL1FoTfHi6IPdEljMIsdvXnFU+wp/kB0VagglCp/9woEIcza9MiwMPQ7iDKtsLPPV7GrD5tcuWcQBPcwiIA0gNBrFnpz30W5e4zBviMyIG0VKviEonU9lDgWtQhwTZ+EINMLPKHpPnsXbJ7UNTEZPywwDSD0WoaePdVJubttXTZwNimTGjP0rZXXDe2WJ7/xOla8CTnVsJvbg+SN6PVeSe2x8wkdH5xJMbYx7S76Q+h1xu/WHqn2vrindzMW68iuiS64rr7BO7l5GYDQbKoLAyq8aNLCQGramBfu7TiFrr4yrW1PuR2EXhNza4axfRg8L5qrXR7vJxWe32vG42DfxbfXpmhJXnTgbZwep5gqZog24tu5rlS9Edpjx4lhPp/D66QBhF6XoWfNsjZNB/VIv7fF7Xyigxl8+mdnCjKes7yRmoeO11xRfTjuqEq3eBIV5+ZFj8Kw0KeJQuj1EHrWtJNGdFwevMeOkdfp8wUJmk47b05/H2sMH5IXDTgfp9DRf0J06YWeNNXPOCexjw7tW9qliv6WA+4Rej2G3hyn9XhDH7JwvspYffipQke35ECHTkNrUDzsNVPnZOahQ3HZihVC0x8HBRjrbw1NO03UxEz459O9vAi1H+Peug5Cr0/spKbP5sGH7JkReEh6O97zWHIdn5AH/p2OEe+8SldoiY5PckpgH53lLPDs3jVCr8/Qs+YnNU33IRPnqwgTYa7fAXieD7qFf9kNL9o4vIdzMkPtsDZNtYUApRsApWtb0aZQuZ4fVw4DD6GXghHKHGiT15c+Xejor6XzjRT4bYdZolkuTnPPe1Smf4VmX28HFn7rbSfAvn4nU8IGbDyngYfQS8kU8zBNlajHG+A7vflOF3jdLesjbED7yP/qQscndQFWri7cet0exd4ZsipyHHgIvZRCz9YH1+yCkHW6YXLoHxIdXeO1llPEO5TtSDQ7N2TeMx/b1rcZ082hEFKAcXxn1Uz8sMyJ67ODnAceQi9lE7bvRuxTSk5Wk3qYF8ATgjtgSKaiNU4IDLETqSvvg6jSO4XAdfSCEHm2YypA4CH0Ug69rbUf9ls/Eo1n91L3aEONUH0q03EleuRArunvqQOaSWGmF0xZbW/Iz8KsNpVlWW2343Zx92YG9VVT8ecyNZsBGheNZQcITXl4hjS4I7r2tclePgAt+Vx13LDJ9qCEHzRBjV9VDg9VCULTvUFh1b9xI/T6x66DKbNgX00kFH2gIPrtwIFTz73JTkoRqmelPi4xPfw8iChNgYV7ikhq+l6BuEboZRZ6NJsoek/qZpNCgxN6nycJTbcWSMdBhJ9U1XenQE8OmpiceJBQdC0ElFro/XF88/BIiMwLzS4sGM8IvQxDz2pFGjo6SC0bel3BtOw/+AzdW5th+4fId6pjkpq9FuJJLfBmpYlPT5WglBqr6crbCsgzQi/j0BOabrHXgFOSYWrN2EcYhGbfLqCmfYffF1IjKcSG7ISudk5ICCe10LsjmRnZOzSuuYmOKijHCL3sQ29WaHZRaJq24wn4PY++g2vA/ivjIfKdypi4ic4oqBkOSHp/IWgf+UiFmBQbsadaC3z9A6HnJPTmTnP+R4qyTKWpicn4YULTTfCw/vyqJW6KrkyFoNAaKchzWl7CrYVY7gtxSh+p6L9ajDck7PodC0LPUehZDfE6jYXnY/SWAuu737oYeL2xaTolNK4HHo8wdDHEkt4ekjT0qYFJSbmBRNFLCs4xQs9l6Gn64URj+RNSlulAzdnLCULTHQXX+cAh1is+XMe/tHfJDkROSCvbmUJ6BQHLtw/ICR0fHBTHdfZEqQo/pRxCz2HoWQ+wbzMPSed2LJhJqr039evd0rAPh8Z1X+M5rj7yUFkv1LNazveCFovInkLsi4wMV5Kq8onF4yzgZ4Se49CzGpIqOjFD6fbctL2sIDTdV0B9e/e20HbmexaHXaFm6K0QR7p7RmN1trYvMjJaaa1isiQcI/Q8hJ7Q8c+OnYr2yki+fTUrTfUzJdG84yAM887drkVylF4aCU13Qhwphp6i73RNgIMFxy55/EOEoW+VhGOEnpfQo1lh2PsdyLnrLvDi6xQ9bZGmpImP6ZqI0Ba0rw4piRk62xuSjejNIfEsNTutRBwj9BYZlEvuj6yzZ4akfaHj611uf3n6Yt8e3TS6e0hcdzUWaeiI8pCU3V7PYgzt0XNXBDhYaPX0yNMXj6/gnxF6HkMvtDeu4+3q2fleYuI3OrCwdLuQhlTBDdDZ0d08jqEVPS/fu8YQeh5Dz9ZBMl15frpO1X9rXFeq87WJv+kGoFT02xCno2uplkTFL4MI0hVBaAU/rqLVJeQYoec59ISi7xw/85R/bGk+jn+QmjaWsA6c7PBLwz7hmM7+upNfPeCRQtONEELaoRf/LKRiFzqeKiHHCD3foWcfYQjounatTi8sYR04CT2LKzfVw/pLIodrSRWfDhGkHXj2IV32UYc0tu2qxJMNIPRCCD1Fd4ZybXviqr0fIXT0O3he+p5nMZV12tzWjHz/uLYRPY0b+jMEkIEA6vGob37n+rfvQyzPIwqL92gRegGE3py/NOisIOphaGiI68oF8LwMPG+b1sZM9OJQuN5lHCA/G+K5opt2AdvTF7xOp5S4wBF6oYSeprvFTOUpnspgQbf2ubIS18TiHcP0Pxv6wYReuecC0EP4IExVgPiMQi+QU5vrDHtsCebXbFe0CL1wQm9WNlgQz6ziFGc2vrdzntQUvSOEnFswBqFpy86DxL9TFEIgpzaFodeVnFeEXkChxzX9aOV1Q7stMCJPH3CWK0W/a66xe+y7Oj3Ru2u3NRW9quRm2O7oYKDfQjq1KUx8Xcl5Rug1N6SBND6IpriOT9jVkdx/g1OcmYferFDVz7hntkmP9n1XQtMtgwgX67YWTCh3bWKuwTmOEHqBhZ7QkWliS86/sqc4uY7vgpe19rI0sAnixcJC0QfS2Bi00VwsNmycV3CTDnH6BqEXbI2qyuFNJOv8K7wou7mHpawbvzuedgLYlDfI22mSQLfj7lUz8cOcV++iDu10QMLQvYFi5FIzfgtuES9Cs1XghGalps8ugsbLxyM1ew34yD74vL5fkev4yyA5O5JDeVms0PQW8IwjvYA1cP/Y1HLyknQ7dSqnaHnAGLncOcy0r0TTT1fPxI/bCXo3/5SGjgbB2QWexdbOYeqGzfa9CINXqGzTOo70grumt60GFXtnexW7+VXo+MfwxWx90eLLdfxeN4xu62X92St3E6o0Lw7NdK+lXYGMq2ipU2KbdMYNHdlujCX7DaEXauhpurGJfJ1/Na6jj5esJnz54/2isewAZwRLFb0exGa7N2OfQXJGaJuOhKHzwPV2rhF64YberL3G2UbKTn4aq7O1qJft9ZJxILILnZAqGmxfoek2EJstsVzFH3FCaIdOhKafg+vtXCP0Ag49XmendZCzk59RL9vrJePQo1mpqhOZkyoMnQlSsyc1aUTHZU5mhw5wd+AuPCP0Qg49HV3TQdJOfk50dA08cpfaySQAuWZXD80OPSAzYsfqdAjIdEPm6pl4RWZEdtmwqMcbwPcCvhF6AYee1WptipZ0Ke/MFrMTSqBuFtRNJoG3HWNTOTU7MnV06faOAhd/3sc5NLvhgZkR2WXDQtG1eccx5fEj9AKve2nYv3cp78wWw5RkDgNvqx5/dfTmFem/cUM0qsenbCDZpn/gxdkOS6no+5lVZJcNWxG1G2NJf0PoBV5XIbx0dGKGlpS0Prx5eurTNR60cXgPodkNINLZHswXusymzBZLGvQS8L0L3wi9wENPaLrPPlKVWWF02TDepr5L7WQeiEkjenaX9HRerKYrb4MBuiMxMfEbO7OS7RKYR7Ap3wi98ENvVk5XebbV0bl1oWgTPLNpDWUXfoa+1pmZLpZYN7WchKY/gEB3BCZ6xZouqMl0EfDdlG+EXg5Cj2v6ZKbF0UXjuAmsaf1kF3jbdJkoNvhd71yzc2GAbgmc0Ps8qYu6ymyR2gzbH5w35Ryhl4PQC+GaeM2wY1FDTWso0+Ab1/Tdicm9H9y3OY6raDWIc07cnX0TltKKQrOXg/emvCP0chB6VrsplULfzaw11WeghprWUKahZzGXjejNfRNnX9AI4pwTt6VvwlJaUZj40+C9Ke8IvZyEHjdL4pTKoa9mDq/v+xjUUNMayjz0hKHfj9WrlZ6JE3Xs7fsQLTfVM3omK+UVhMZbFVpwj9DLSejVGnH201N1qDuh6e4WOsre+HPCU1b49Hxdd3TLkkcLTTdlNSC022YPyMTrO9RSpj+PbhrdHfy05AehlxczrccbMi2ULhrnmr6LWmpZS9kHv6oc3gVNWxepGXoryPJDlr0W0DVRGSw4oeODwX1L7hF6OQm9ccMmMyiPnpq0L4FGLbWspcxDj2va2BVha66oPlwYuhlk+SHruPrIQ7siKqOFRINOBvctuUfo5ST0QriDUxp6N2qpZS1lHnoW+1qdPaejVQpTORVEeSPq7o4EZbxAounz4L8l/wi9nISe1XDGpdKxeamiE1FLLWvJSehxRV9sS9Tc9RxDPwBR3oj6eVuCHPyYaPom+G/JP0IvR6Hn+w5OYaoCtdSylpyEnsU/USsOammdeD7LL0H2wndLchz9IDTdgkJtqQOEXo5Cz/cdnJjkoWUdOQu8rV4Wf7qlfdoX8sHwPBJlqNGSHEc/cEN/hgZaagChl6PQs1OBOSqbpt0kW6K9UEsta8lp8K02lWW7kGS/BC9HN0cAACAASURBVEF+CbJ3e+1CjMMvDtMr94QG2moAoZej0OMq/ojD8mnalVTR31BTbWvKSfiNTdMpuxAkNb0U5Pglp+cHKndhcbAvxlW0FBpoqwGEXo5Cb1zFnxusIgZfG5cL2taTk8Cb87RmZ9FEI/4SDM8vQfYW58HLrP8W8IxeR/4RejkKPa7ZZf1XQzprCh1fBV/tWFdOwi+5bL8n72B1dsMDuca1HN/iHNcDTJS6g82+/yV1JfGNQeD9I/RyFHpSsav7LoaUVhSaZgLXtJPACQKDBp28nVZpoucEMagcFVQWeI2b+NXbSfHwD9y923GPFKGXoxqVOv6xhzJa0CVCr2NNuQzdHZP5cx2/NwsTR5u9Ec7r9IoFFeP4A1582ZEvhF6OQk/o+HbHJbRLdwi9jjXlMvRmxy4Ze8gcScLQxQgo/+RwHZ+wS9U4/AKh11EDCL1chR7d77B8mnaF0OtYU05DT0xXV84RhTcqhEGMNHR008px9CVCr6MOEHr5Cr3ZwyZX7umofJp2g9DrWFNuQ0+xY4dWXje0G47ywiBGTld508px9CVCr6MOEHo5C72x+vBTHZVP024Qeh1rymnoSRWfPjS+eXgEoRcIMb28/6lpiQ32JUKvow4QejkLvaMa0dMGq4rB1kbodawpp6EnGvSVIW6ioxB6YRAz1hg+ZLASG2xthF57HUgVf2MwhNNdm5vqYajd9pzVpqn1ZMPp0tG0NaFpCzhqz5FLfBJNPxyC0YVDiDRsbdPKcfQltNBeC9wWTED/ww5re76smR6ll0Y+KRMmvs6lqaOvzpoYEjr+GIDqDJQLjKyJeS3QerzBxXbmuI/f+ORncd94rrJz3a4z7LGLcXP52R5Z5Fjvbk89Ojp1PmRfsgdSOhePC4zwyEIYPLTk2tC9Lg2zU192Bp+WY3VkIKH3v/7slbt1wjHL34Whn4eOUdnGNyQNqbJtdKjba9+0nGUBdmqbG/amULEJZ1xsVSccXf2O2u24k/QHV1y06kdouiMc7XbEq5BHdovxHxKavrP4S3z2Iw6p2WtbFY+L7xNFLwH37blPNJ3pgotOfYxd8viH4N2H7bkShm7uhGPWvwsd/RE11YEnx2cl7OnN/wEpgZDi+aWXtWmqQQudtBDfvmomfljWZtmpfUwO3okn+zv7diccs/4d9dQNT26XsUd62BNxvKfRqhDsHKhZF2G79sdmRg5sNTZ8v1Nhmnh9Oxxd/JYYdg442YmTpjXMtAsuWvVh53kER504cv87Qq9psbgnwhYHN9UzWhWQi+/FppX7oki74N7E17ngo1Uf4ypaDZ664EmzC1th6OL7dTPLHgWeuuHJ7TI4vRlQ6CWaneuiGFv1cdDG4T1QpF0WoMejPWGoAZ664umsVlp38b19aSl46oonpzfQ4EaWgEJPeN4ztUYgNP0JhdpNobIb1pil+7gwz537EKZyKvjphh+aHdPstJ2xc/3vNZpF4Ko7rlzihEcWQgo9Qxe7LszF/QmN54p6KMArFuOX5Weh2aoexuZ07znIcanq8Vny0alt+xqbIHEJyfM8jAUPp3sAvVUhSEWNToWU9e9C0zdbjQ/fN9trjZxcN8Kp52bYt/8uMfTPWddLu/a5iZ+FmmnPkQ98MA1ZQKEXwnNFiabP+xBirvs08fvbmd+gv03o+OBc4+Opxo47f+Shg2I/yPpCVY8HbyGGHuZbDOo0kPdCbdDJKNTeC5XrygWjW5Y8ehCTbLYu1+w14KN3PkLYgbSPIIG7PrjLeCcJrxbKGOBeRe/7lAyOKgYoUkP/T6R0V6e9HlTTdHav+sHyW/njml3WbCfC5Xd2DOBjgHrKwJvnXi2El8iGRYo9JeKyMBf3NbppdHcU6oCasK+TMfH6505Fey3Gt9NnXl/6dITdgPjbZ149T/RgebZHm6ilwblMFUP7EtmV1w3tlmqjGaRzmcYXRLHq+PoyYZ7htt5n35zNdfRmG2YTV+39iMWhN6H3eZK9K7Om6D2Jpu9lOJagTuNnvp2edx7tZYrMtxFe27OmpYpPn6tBoekmEBTGHkkIp2WEiT8NPWSlh+h3iY6uEZpuFJpsKPZcuFinM2a+LxPY/sFTZ56cY6TYsVtDz9DFzjtHsTc3uyBmhmcvhx4CLFjUTPOaaYKL9xvCcOdm11w59Zrp6sq50MNdRmEZnO+Crc2w/Z0KsYlpof+wNJkrPgLYcYSnhqlfOwn4XOhJEz0nV6IuuEn6PjVjRQE9hFm04KUzL1LRV+aMzeP/4c7Nzjx50PKWHZKY3fBArunPHgYR5iGw71D1fBF+LvRwyhva9F0HffYvdfyiHebm51+4czPA0GvQyQvUIBrxlxB6YRAVwh2cSQNvUUc9hFEPvfKwzrDHLjA3xx9w52aYurFvvVggBanppb2KC8tnQ24Id3AevXnFU8BvNvwC1+xw5Tq6ZoGxefiAOzez47fv2jFN5jVebSrL+m6wz9MQ6K+lOO70UKu7dCkUXQuOWnKE058B1j039PZdhOz4i3ETvxp1E1bdjE3TKU1lwDW7GmSFQdbqmXhFU5IcfikwLyuCLcBga+tRjWUHOCyRpl1xzS5tO8a8YVqA8dqDuqZkCY3ns0IRa6JHFl50bcpYtl/i/W1h7ACFoskcjOPGbCuiu9aFjv6QA6xKtEMXf7olc3PzLhr6AQgLwezYRS2JcvgDXiobghYwhm48KdF0psPSaNoVb1Se2c1YsYw7TSdqxUFNyZr/UpjKqSDEHSFtsA7jup6h89qMsUR7i0FoAni3OdWWKCbnfczX35qht6JewqkVruiLHbWw5orqw/GMSRikjc2MHNiRsIwX4CY6CkUchh7AQzse4tuPq/t9aawtRaHjKfDUjie3v9Xq7DldWST2VtwS07JITOXUrgjLcKH1Z6+0b+HAhORtjjBa8od1nB2ZJoadk2EZdNf05MSDcD0vEO+ce70UbeyOuKGhIfsGaBhdCOSFcV0vUfQeGHsIesAYWulQquq/dG1wGS2I6RzD0iffXHluT1SLOu7kbFVgDr+/095c1BNxGSw8Pj3ydIfb7OzoANsUlkn1zYehizOQfc9N4hGfcPQkFX2qZwLtCkJHpm8h4tROKuY9VqdD+iIv5ZWEZhpaCKeowcUOLmqNeCJluffVHK7n7eDEpz6lojvlpSzqi8RxFa32OXj0TbP2+mpf5KW8Ep7hDKOgURMLebAv5E1Z6n01N7rpEf8X1/MWcuNNq6o6mGdyzc71NngcLc7avce+qjDllVbPxI8Thn4PLQRS2KiNuTMpUkUnpiz1vpoba8SjqA3/tSHr9L2B30e6bmo5CU2YYcCjyXCzJO6rElNeKVHROShs/4UNDuY5iH9mj7BSlnlfzYkGnQVe5nnx97dWpxf2ReDilWq68jYQ6o9I3ohev5gTH59xutufBlB/u2Ivlf/JpW0d2ucDhaFfgKNdOXKJSU3TJan54kEbh/cQmt3gcgPQ1w4B8Ub8jdTIHLAhXo+/DG52cAMsvGFxT22Klgwo51RWl4aOhg686WD7DYPJFP1rKoTONyIa1eNBrD9i15rqM+a58PnXCgs68KcDYL8Ve66jj/usg5375po+D1781kRm865yHeGVGb6u7Sn2zp0Lzee/Bebj3L53CbPzYnZ3j00tJ581MN93siXaS2i6GzrwooO5OuQqvk1sWrnvPCep/rXPjIFcT+Sa+PpUyRygsZpi+wtNf4MWPGnB145XIP2Gci3PlpAw8XrUgd86kCrjex6EoTNBsh+SuV7e27Q6AwRbp1VFg30UOvCjgzLjzjX96PiLVvxTJ326+n1c0yVl5sP7tiv6lp0fOFO+RYPtKzTd5n1jA9nrdIkDN9UzMiW3h8Zr0yPDeBgXoedS/3N9mXh9DzLNdNGxerXifPtL6HttMVa0LlOS5xu3h5NtBwJisrrmc8vxM0/5x3kefP8Vir0TOkDwudNAZHxrfuf+pWavdbft0NlirKWir+zMR6b/nnvdjKJvLR4EPmcvzCMDmWfQCmxtY/kTpKKbwXv2vANjmk30ijWZGluPjQtNW8CLP+13fCN6j3x2XBzPpngj+/yO5DhcgOvoBSh8b1rI6oxCcO1KTZ91KOuOXYnGsgOge4+6r0cf6khSFgtwjQeVXQufa/r7uI73y4LPftuUhj7lGgf059FwHF++4Jr+PDETr+hXn1msN66jj0ODnjSo6Be8zp6YBa8d2zyyzp4J4j0Qb+jMjuQ4XKCmhh8vNN0ILXjQguMA8sJxQM+o2rIaN8MjQtN9XrAoA98dtpHX6RSH9rZrV0LRB0C+c7P7q6yPsF3Z8PdNrT6CqZg6FCvqpPc64Tq6xk6D6E/Zu/YsdPwxcNk7l6lgpujKXRlx/M1EY/kThKZbUtkgmEbX11KkYR92THXH7vAMpycjKG7d3Cc0W9VReA4XmNhEsT3dCr/zpfXKuEO6W3dVU9GrIALnIrjHPivXmhX3v6ybWfYoYeLroQXnWuh6ZylX3JjKqe5V3L5H2aAP5grDAu0QcUVfbM+O419x+657o5O68j7HNHfsLlFMwhTca6FomEtFX+goNscLjKtoKebZ9Kbt+xJD/+yY8vbdCVMVRSu80LeH6/iuzCZabU93218TRe8JHTuMz5t5dXNUeuOE3udJbUXm4Ufo2p9mLPYeKO/cJdeVC2AmboUhdfyuzsy4X4Jr2ggtuNVCUfC2ZwvcK7Z9j2Km8hSh6XdFwThP21HT9NN1hj22PUOefl3biJ7GDS7yOhbUHSHuFY9d8viHSB3/2DEW3RxFYJmAr/PwOjvNk3217VZqdhq07GcnTqroxLbk+P5Rqvh0iMOtOBJF7/DNe7P+7UP00IJbLeQZb1mnzc105Pu7bXeo/ybP2OZ47DO++e/Yv/zqAY/Eg8rOje5XIR7tWbFgujrnWsjlkax9ZVAoL4ZdbHKiHm/IcWjkUg/zePM6jS3mI8jPiYpfNj9o/HVkeoHN0rKzMGEajjQQ8GnLtj6g6BehTa03r9/xzXOzr/xv2/HnFffAxx3afKvzmmj5VxpSEIpjs6vHoy0J8fyDfcYGenCsh8BNzepBquhvdvJmz/Js2b01XujWi27/KKdoeUtiQvxBGjoCYnEtlujrIWphfkxC0ww04VoTYfe3Vi8/eF4fof2V01UOvfrST/Sfoemhq/EkKjoHonErGq7Za7oix9NCCD63egi5/hJD/+pJhl11KzRdETJ+RR2bvb675orqw7siKbSFjtJLI6HpzqKSE+h23RHa9GSLdYngQ/BxXXnuYl2E9NnO5B9ofef6xpRuMJWaXhqSFnoeS83QW7vZUCyTnhEmmp3bM1GOV0Dwpcd37mpH0TrHcuupu9WN/Z4sVXRr7nDNwTXcLjCt90RWiAsfVx95qKzT97rY2MLvwbjEQOpKEqIedh4Tgq98wZdMxcFNIr2zJu2/8eogf7rkennQZwAWa6XlZ66jF7g0fPRFs0LRtRsmh/6hJSmB/IDg82cwrusk+Jk1hoaG7HVG17igv601IA19KhBbSmcYwtDFINetwdlTy+mwl20rCD63uvBRh8lU2DetzCucG3apD3zQJ91p7wGZ56EQf+3LIEGsc3O7J9SHfheLGg+wO9eGm8sJhv472MmCF4lQ1KMXw6P86DDJyQ76Isl0/shNdAZE5VZUdpKA2dmhB3Rmx/8SUlX/Bfpwq48s8ZaKNvlXVXcj2DZP7G1Z4oG2m2tbavqevfejO6ZyttRYffipXNOvQX5z8jPDRdEH8iIVe+dcoqNrMsOiGHe4uTlKGwSrevShvGhu/dkrdxOGGtCcY1/api9p6IV50Upf45SavRbi8iCuRvX4vgjztBLuoPOgkUFCbse6f6kp9m+eZNNXt7zOPgpP8qO3cU2X9EVarlaanHiQvbMQInMust+K6erKPGnF3t4OnTjXSd9HkdLQd0OfZWWx/oWJ10Nj/jSWN70s1k/Xn8X08PMgNC9Cm9kwORH8Yww7C0mYqhjX9F3oxYteug5Ae7SUt6mjeKPyTKkIb1DYcZTeNd+p1GPAb4bZ2YNS+/e4YZOpAOeLsLz222AfTY1ERw0df9GKfxI6+hD0El7wcU0/5IaOdCSF1Lo5bHLlnlyzq6Epb5q6TTTYvqkRmoeGEj1yINf0d4jOvejyOrcdjvrca6VdfUrDPpGXxxEWe6J9ELrdtuG3bLXGG9HrF3NSis9SV94HcWUrrhb4/sHudORRZDjq86KXxae9/lua+Jg86seOOdEjJ7eoi8Xbic9ZnNEy9K2V1w3tllf9DDTuZEu0lzB0MwTo3sh4I/5Gnp+NwVGfe83YOrWTmfM6e+JAhe9xZW6qh829uDYLM0eb3e0kNMKecDxzeQodn4TQ82NgUtEXMic4ww7sUR839Hah49uhoaw1xLTd0ciQzsybXmOW7iM0uwFayVorbdpv0FcyJzoPHQjNvg4hthFKhnuQ42rknDxopN0Yt74KpvpuYeK7oKN0dcR1dE2i2HHt8M/Dby/aOLyH1DQNfaSrj17xrE3TQXnQS+ZjrE1TrVfwsHx64uU5vKOzmSjlZZVlskEf5Jr+DH0Mpg+p6PtCs5c3wzmP34lG/CVoYjBNDI5ffmbpcaJxoen8wUH1TWp++5eG3u2EaAedyPoISzSdKTT9DZrqWZO3CEOvy/P13sUS46aKOX8zPFvUVY0Z+sXRl++b22vBizWVymdx2YoVQtMfuwLQN4HF7f8tqZAZSCN2Bhq+9Q7hW6Cr9uFn5zuVDfaa1TPx4wKhL5Vh1HTlbeC+Pfcu8JHTdEoqhBatEaGj/3RBAPpoXQRFuH6zuC7s9Zwxw+xrY+rgfgH3d9rn1QrztupFxIsG4dGEAHbQuY6vWkQNPs4jYKcx4pp+BGNaYEzd3Qacorhr9ejZ85wU7e9avfzgbRMM/6bEOtsiDfv3mhp+fNH4nd8eruMTSsyvc89oh3UeZ+yZ15GTv3a2kHYA4jc3gWjviHRCuKdOVs2sfBSv0yvsLO9C01+Krqut85dGH8rLG8wHkUWimCw6n/nZvujCQbgszbpCs6n8kOomhHzgURbBHXflyGNEo3p8ounzRXrmz77E1c4+snomXlEWLsfqdIiPWkGfTX3wftFYdkBZtDfQdgpVORwiaioi56ctJvTKPQciM4crH6lGDrWPPghDN+ZJh1LRb+2MKfZIxz64n0PoBxqynRotT3wVfaxcx+8diNCyrcw1fbLoosjL9hX9VGe72rLXvaQe5ltvsortGYjfhsBboumvQtGV0rAPC8WOrU2PDLfbjqL/lij2phB4wRjmd9bjnxXtTuDMa8gWsTD0O4hoXkR+/46b4ZHMSc9JB3PTWU0PP4/XYzth+oww9AOh6Y5MtGriu7iim7YF3CfsXahyipbnBConw6xpOjsT7FO8Oax846u+0gn5RetkXEdvLp9Y/IZbO7yLfFdnGrWzYcPQA+3e7RGbh0fsKVLRoHU1Fb1K1OMNnf6Tmr22VqcXino8Ovd8YZ09cXTT6O5pjKvIbXBFX2ynWfzmw0+irxdZc5lu28Tk3g/meGu28+t47YyC12ksU9LROBDoEgGpaWM7reI3H4FHs3ZayS4pxGLNELAPS0O8fsTbCvciPsDeTHv4LkwE4smhfxCa6Vb6xPde/eL8MFWTs1EJQ1+DkL0KucnRJs7Z56yMCjHcsfrwU+31TfhBaH5As1LRn+x0koUQmu+NsNeSIPLwRC40FWquTt86R//tEbA38OByR5A+MLdTzOvstPYM4teeENg2dVSTI45wRVCGoOaaXTDRWP6EnsjEwkCgRwSEqh4vNN1WhprK4zZKHf94YnLvR/RIKxZvh4B9VkxoujWPgij8mA39YKzO1rbjD78BgX4QsHewchV/pPA1lPPHI5J6vL4ffrFOBwSEqZwK8Yd7ZFsz9NYOFOJnINA1AmMzIwcKTVtQ8+HW/Bw3ilTXpGLBHhGYHXqAVOxqFEG4RcANfXVcRUt7ZBaLA4EFCNi3tktF/4taD7fW57mRUyNHLCAPH9JFwL6mYh5s/A20IAzdPK7j56XLPForAwLbXi+GKQhzcrozUdE5ZdCl920Uml2IwAs08HYqVqnjd3kXCwaQGwTm3pBg4utQ2+HX9laO4rsmNlGcG4HleaD2dRVC0/0ojjwURzw1ruP98qw3jD17BOz1eqmiv6Gm81DTW8coFf1H9spAD9sRSBS9BwWSmwK5x97ksmFy6B+2E4h/AIGhoSFu4mcJRZtQy7mp5W2PjcXXT0zGD4OIHSKwzrDH1jT9FMWSo2JRdK3UlcShTNBVoAismokfJhR7J+o3R/W706UL+9xkoNIq9rCkik5E0eSvaOyLTsv+/rdiV2b7ras14gmh6Tuo3fzVruWM6+jS9gzj10wRkIamUTy5LJ47uGavyVQcaDwoBCZmaAnX7FzUay7rdftsWPaGo6CEVbbBSMPWoojyXETR1+075Mqm27Jtb6Ljk7imX6NW81yrc2M/q2zaDXJ7hYo+g2LKeTEZOnNC7/OkIAWGQfWNAG5UyXld7nwdT8e316ZoSd9iwIrpITC+eXhEaLoHwZf7ArvVvmE82RLtlZ460JIPBPhlI0+Xhj6Fmsx9TW4/rcl19Q0+tIQ+WyDADb0dBVaYAkP4tdB56F+v1csPxpmXwtTh9sATJr4OjxwFVn2H6ZV7SkU/QPAVquAQfoHVWavhHKnZKvuaKdRfoepve+hxXXl+K+7xvUcERD16MYqukEV3a01X3obTnh6Lq0XX0kTPEY34S6i7QtbdXOjZSeRb0I+vQ0AAszsUt/jm3qeIa34hlNnQuIpWWzNE2BW63uZCb0LHBwchOgyiOQLcVA9DIRa+EG8V9ehDeF6oeQ1k9W2yaWRvUZ975Q+mDVtwV2Nx600a9uGs9IR2U0RAmsonEHzFLcQF3Cr6jlT09ppi+6coITS1DYEXbRzeY0JXns8VfRF3SJekprYFeqLjX+IxopxYgbyssizRdMcCcyzJnlnJt3lm3MSvxktsBy/UsTpbW9N0ttD0q5JravvNHGXDwdbS4EpCC84QSEz8xrKJFNu7dU+ca/q71LQxUfQSOzG5M9HlvCP7IDnX8Xu5ph9BS+U6qtuV7/iqnMu5fMMf3TS6u9Ds27uSWXYxl2777xw3bHJsmk5Za6rPKF8ltN7iw+v7PiZRTArD3i8UXYtaKV1ttDyK5YaObK0c/BIsAtLEx6CQUcgLNKDoF/MhKKdoebDizWBg9nU+XC9/bqLoHULTzAJccPq/ZQCUDyd2YQbyQ5OuEMBt1Qi9tqal6Bf2ObNExS8r3LyCsxseKDRbZad2Q8ihDtrWwY6dnvtFY9kBrvwZ/WSAgH3GpEuysae3Q/glxiK6RRo2ae8I5YYddcTm4ZENM6v+TwbSTLXJY6eivcYaw4cIXX2l0HQWQg4h14/v2Wu6qQoTjflBQJjow/0IAOvAOLZrwNCNsh59zb7tu2bYsWK6unJicu8Hu1a0vYVcTo0cwet0ip3QmTfYN4Sh328fJ3ZcSrzDNmi9xj9bPRM/zrWm0V8GCBx9+b5PFIZ+AWMYtCiw/q4ain8mFTWEoYuFZhfat8JzUz3D7jHbqdOkZq+VKjqR6/gEbqKj7Psf7RHZuF7+XLmZJUKxY4WJ14sGncwNe5NU8en2wXv7uIA08edEg77CdTwlNH1TaPrfXfsHJ8AkLQ1UX5mB/aJJXwjYPWMUR1rFgXagJWigWBpgX/flzeg3QwSEoiuLJVQYD/iEBqCBwTVQm6ZahtaLpn0hIHUlQYEMXiDAEBhCA4XSwPm+PBn9OkBAaPoCCrZQBYsbF3DzCjTQvwb+NDETr3BgvejCFwJ2YmKh6V4EH4IPGoAGyq4BqdlpvrwY/TpEQOr4XWUXO7Yfhg8NlFsDUsc/nrjqGY9waL3oyhcCo1uWPFpouglFX+6iB//gv9QaMPF6Xx6Mfj0gIDR7eakF3/81AFw/AXbQQM41IA0pD7aLLn0jMPdQcc7Fi+DG0Qo0AA30qgFp6Ajf/ov+PSAwrqLVvYoFy8NgoAFoIM8aSAw7x4PdostQELDTRuVZwBg7DBgagAa610D0B26WxKH4L8bhAQFZH2FC093diwYFBqygAWggnxqw88F6sFl0GRoCVggo4nwWMXgDb9BAtxpgNxy0cXiP0PwX4/GAwIs2Du8hNLsBxdNt8WA5aAUayJsG7Js+PNgrugwVASuIvIkY44XxQgPQQDca4JpdFqr3YlweEeCGXdqNgLAMjAYagAbypIG1atmhHq0VXYeKwFidDsmTkDFWGC80AA100gDX0cdD9VyMKwAEhKazOokIv8NooAFoICcauGNcRUsDsFYMIVQEalO0RGi6LSeCxnRQmFEHGoAGWmogMfEbQ/VajCsgBHgjej1CD3vy0AA0kG8NsG+PbhrdPSBrxVBCRWD92St3E4q+lW/Bw7DAHzRQZg1IEx8TqsdiXAEiIBStK3PBYNsRGNBAnjXALgrQVjGk0BFINPsyCj/PhY+xQ7/l1AA38bNC91eML0AEeKPyTJhGOU0DvIP3vGqAq/gjAdophpQXBMY1fTCv4se4YdzQQOk0cOvqxn5Pzou/YpwBIjDRWP4EoekWmEfpzKPlbeDQArQQrAZM5dQAbRRDyhsCNRW9KliR4xklhBM0AA1omuWaXT00O/SAvPkrxhsoAkLTFQg+7OFDA9BAqBqoNeKJQO0Tw8ojAsJURahix7hgxNBAyTXQiL+UR1/FmANHgGt2Acyl5OaCU4k4lRicBqK/rZ4eeXrg9onh5RGBtY3oaULTXxB8CD5oABoIRQNcV96XRz/FmHOCgFDsnaGIHeOA8UID5daAVHTzsVPRXjmxTwwzjwgceu0BjxSaboTZlNtswD/4D0EDiY5PyqOPYsw5QyBR8ctCEDzGAOOFBsqrAa7Y5TmzTgw3zwgIzTQMp7yGA+7BvW8NHKmrZ1ue/wAABZxJREFUPM8eirHnDAFp6Ajfokf/MF5ooJwaGFfx53JmmRhuERAYVyPnwHTKaTrgHbz70gDX9OdxHe9XBA/FNuQMgYlNFHMd3+VL/OgXxgsNlE8DUsWn58wqMdwiIZAYeiuMp3zGA87BuScN3Ci/esAji+Sh2JacIXBcfeShUtP3PBUAZscIbnYMhAFqITsN2DvHc2aRGG4REZCm8kIUenaFDmyBLTRgNcB0Ef0T25RTBIShi1GYMGdoABrITAP1eDSn9ohhFxEBodmqzMSOU3g4jQsNlFwD8aeL6JvYppwjwE31DAQf9vShAWggZQ38YWxqOeXcHjH8IiKwxizdh2v6dcqCL/keLgwUeiq3Bmq68rYi+iW2qSAISM1eC5Mqt0mBf/CfngbYDS/aOLxHQewRm1FIBCYnHiQUXZue6GEgwBIaKKsGpI5PKKRPYqOKhQA30VFlLVJsNwIKGkhHA1yzy4rljNiaQiMgDZtE8adT/MAROJZRA0eqkUMLbZLYuGIhkOiRA4Wmv5exWLHNCCloYDANjOvo48VyRGxNKRAQhr0fxT9Y8QM/4Fc2DSSa7hhX0dJSmCQ2slgIJFuivYShm8tWtNheBBU00L8GEhO/sVhOiK0pFQKJjk+CAfRvAMAO2JVLA+zbo5tGdy+VSWJji4cAV+zychUujBp8QwP9aECa6jHFc0BsUekQkHqY91MAWAfGCQ2USQPsotKZIza4uAgITefDwMpkYNhW6L03DXATP6u4DogtKx0Cq2fiFULTn2AEvRkB8AJeZdAAV/FHSmeK2ODiI8Dr7LQyFDC2EUEFDfSkgVtXN/Z7cvEdEFtYOgTWXFF9ONf0IxhCT4aAt0zgXXrF1oBhp5bODLHB5UFAanopQg+hBw1AA1YDXLOrZ2eHHlAeB8SWlhIBoakO04PpQQPQwJGNeKKUJoiNLhcCSSN6ttB0P0wPpgcNlFcD0rBPlMv5sLWlRoAb9iYYXnkND9yXnHtF1x42uXLPUpsgNr58CAhFm2B+JTc/3KRS7JtUmvFr6F6h2aryOR62uPQI1GbY/ommuxF8CD5ooDwa4HU6pfTmBwDKi4Bo0MkwvPIYHrguPdfnl9ftsOVAYBsCskEfhBmW3gzLd5qv2am/An83btgkTA8IAIFtCGBuToQednyKqwGuo0thdkAACCxCINHsMhhfcY0P3JaV2/j6RaWOj0AACMwjIDTNwBzLao7Y7uJpP75rvrbxFwgAgRYIcF25oHjFD0MHp+XSgFT02xYljq+BABBYjIA08TEwyXKZJPguEN+Krlxc0/gMBIBABwQmdHyw0NHvYIYFMsMC350InW7VaaLovA6ljZ+BABBohcAas3QfoUjBUBB80ED4GuC6+oZWtYzvgQAQ6BKB0U2ju3MTnQHTC9/0wFFZOYqvF6YquixpLAYEgEA3CHAdvSDR8S9hrGU1Vmx3kNo3dOah1x7wyG5qGMsAASDQIwJj9WolMfTVIIsf16swq0q5NPAToWhdjyWMxYEAEOgHgcTEb0Tw4cgHGvCjAa7ZucnMyN791C7WAQJAoE8EEkP/nGh2LozPj/EB91LiXpfTVd5nyWI1IAAE0kCgVo+ezRV9ESZcShPGKVUHp1SlYZdLQ0enUa9oAwgAgZQQEKpyuKxHX0P4IfyggdQ08E2u4xNSKlE0AwSAQBYI8PrSp9d05W2Jjq6B+aVmfjiicnBEFYJeuaKbeJ19VNTj0SzqE20CASCQIQI2AEU93oAARPiFECihjgFBl6EJoWkg4AsBWR9hiYpfZt/dV9P001ANCONCQGetAanoNqHpC4mOT7I7hr5qEv0CASDgEIHaFC2x1yu4jt8rDJ3Ht77P75vC0M3C0D1ZGw/aR7hlqYGtwcZukJqMDThp2IdrKnrVEZuHRxyWGboKDIH/D2Kj9yXWXrwPAAAAAElFTkSuQmCC;" vertex="1" parent="1">
          <mxGeometry x="414" y="50" width="295" height="265.17" as="geometry" />
        </mxCell>
        <mxCell id="UuyhtYAQAyIEhsM1uixm-134" value="SpringBoot" style="text;html=1;strokeColor=none;fillColor=none;align=center;verticalAlign=middle;whiteSpace=wrap;rounded=0;shadow=0;glass=0;labelBackgroundColor=none;sketch=0;fontFamily=Comic Sans MS;fontSize=120;fontColor=#0081D3;" vertex="1" parent="1">
          <mxGeometry x="560" y="350" width="40" height="20" as="geometry" />
        </mxCell>
      </root>
    </mxGraphModel>
  </diagram>
</mxfile>
